<svg width="800" height="800" xmlns="http://www.w3.org/2000/svg" viewBox="0 0 48 48" fill="currentColor" id="multi-device">
  <g>
    <path d="M43,14V9a1,1,0,0,0-1-1H6A1,1,0,0,0,5,9V33a3,3,0,0,0-3,3,4,4,0,0,0,4,4H43a3,3,0,0,0,3-3V17A3,3,0,0,0,43,14ZM30,17v2H12V14H33A3,3,0,0,0,30,17ZM7,10H41v4H38V13a1,1,0,0,0-1-1H11a1,1,0,0,0-1,1v7a1,1,0,0,0,1,1H30v5H11a1,1,0,0,0,0,2H30v2H7ZM7,32H30v1H29a1,1,0,0,0-.89.55L27.38,35H20.62l-.73-1.45A1,1,0,0,0,19,33H7ZM6,38a2,2,0,0,1-2-2,1,1,0,0,1,1-1H18.38l.73,1.45A1,1,0,0,0,20,37h8a1,1,0,0,0,.89-.55L29.62,35H30v2a3.74,3.74,0,0,0,.17,1Zm38-1a1,1,0,0,1-1,1H33a1,1,0,0,1-1-1V17a1,1,0,0,1,1-1h1a1,1,0,0,0,1,1h6a1,1,0,0,0,1-1h1a1,1,0,0,1,1,1Z"></path>
    <path d="M42 19H34a1 1 0 0 0-1 1v4a1 1 0 0 0 1 1h8a1 1 0 0 0 1-1V20A1 1 0 0 0 42 19zm-1 4H35V21h6zM34 29h5a1 1 0 0 0 0-2H34a1 1 0 0 0 0 2zM42 30H34a1 1 0 0 0 0 2h8a1 1 0 0 0 0-2zM42 33H34a1 1 0 0 0 0 2h8a1 1 0 0 0 0-2zM11 25H25a1 1 0 0 0 0-2H11a1 1 0 0 0 0 2z"></path>
  </g>
</svg>
