<svg version="1.0" xmlns="http://www.w3.org/2000/svg"
 width="512.000000pt" height="512.000000pt" viewBox="0 0 512.000000 512.000000"
 preserveAspectRatio="xMidYMid meet">

<g transform="translate(0.000000,512.000000) scale(0.100000,-0.100000)"
fill="currentColor" stroke="none">
<path d="M673 4190 c-17 -10 -37 -28 -43 -39 -7 -15 -10 -303 -10 -966 0
-1037 -4 -975 60 -1028 17 -15 47 -31 68 -37 23 -6 231 -10 561 -10 494 0 523
-1 518 -17 -2 -10 -24 -82 -48 -160 l-42 -142 -81 -3 c-73 -3 -81 -5 -81 -23
0 -20 8 -20 368 -23 l367 -2 0 -113 c0 -131 14 -172 70 -199 32 -16 79 -18
528 -18 l492 0 0 -199 c0 -189 1 -200 23 -232 46 -70 41 -69 532 -69 421 0
441 1 473 20 18 11 41 34 52 52 19 32 20 52 20 525 0 331 -3 494 -10 498 -6 4
-17 1 -25 -5 -13 -11 -15 -85 -15 -496 l0 -483 -24 -28 -24 -28 -433 -3 c-314
-2 -441 1 -462 9 -59 25 -57 -10 -57 909 l0 842 29 29 29 29 441 0 440 0 28
-24 28 -24 5 -319 c5 -310 6 -318 25 -318 20 0 20 8 23 319 3 446 27 419 -370
424 l-268 3 0 287 c0 259 -2 291 -18 321 -29 54 -72 71 -174 71 l-88 0 0 305
c1 206 -3 311 -10 325 -6 12 -26 30 -43 40 -31 19 -63 20 -1427 20 -1364 0
-1396 -1 -1427 -20z m2837 -50 c16 -16 20 -33 20 -85 l0 -65 -1430 0 -1430 0
0 69 c0 61 3 72 22 85 20 14 170 16 1410 16 1375 0 1388 0 1408 -20z m20 -415
l0 -205 -558 0 c-521 0 -560 -1 -591 -18 -45 -24 -71 -74 -71 -134 l0 -48
-742 -2 c-735 -3 -743 -3 -743 -23 0 -20 8 -20 743 -23 l742 -2 0 -335 0 -335
-825 0 -825 0 0 665 0 665 1435 0 1435 0 0 -205z m233 -267 c46 -24 46 -29 47
-329 l0 -287 -152 -3 c-140 -4 -156 -6 -191 -27 -75 -47 -72 -25 -72 -602 l0
-515 -517 -3 -518 -2 0 865 0 866 25 24 24 25 666 0 c487 0 672 -3 688 -12z
m-1453 -1103 l0 -195 -765 0 c-831 0 -809 -1 -853 55 -20 26 -22 39 -22 181
l0 154 820 0 820 0 0 -195z m0 -405 l0 -160 -260 0 c-203 0 -258 3 -255 13 2
6 22 73 45 147 22 74 42 141 45 148 3 9 55 12 215 12 l210 0 0 -160z m1080
-400 l0 -90 -484 0 -485 0 -27 24 c-24 20 -28 32 -32 90 l-4 66 516 0 516 0 0
-90z"/>
<path d="M817 4093 c-15 -14 -7 -43 12 -43 26 0 36 17 21 35 -14 16 -23 19
-33 8z"/>
<path d="M914 4085 c-4 -9 -2 -21 4 -27 15 -15 44 -1 40 19 -4 23 -36 29 -44
8z"/>
<path d="M1023 4089 c-16 -16 -5 -39 19 -39 14 0 19 6 16 22 -4 25 -19 33 -35
17z"/>
<path d="M823 3614 c-3 -8 -1 -20 4 -25 5 -5 274 -8 689 -7 671 3 679 3 679
23 0 20 -8 20 -683 23 -613 2 -683 1 -689 -14z"/>
<path d="M822 3468 l3 -23 370 -2 c204 -2 376 1 384 6 8 5 11 16 8 25 -6 14
-47 16 -387 16 l-381 0 3 -22z"/>
<path d="M822 3008 l3 -23 604 -3 c421 -1 608 1 617 9 7 6 10 17 7 25 -4 12
-97 14 -620 14 l-614 0 3 -22z"/>
<path d="M2584 2035 c-3 -8 -3 -19 1 -25 4 -6 107 -10 305 -10 244 0 299 2
303 14 13 33 -14 36 -310 36 -248 0 -295 -2 -299 -15z"/>
<path d="M2583 1875 c-3 -9 -1 -21 4 -26 5 -5 99 -8 229 -7 211 3 219 4 219
23 0 19 -8 20 -223 23 -195 2 -223 0 -229 -13z"/>
<path d="M1973 2363 c-18 -7 -16 -40 3 -47 20 -8 228 -8 248 0 21 8 21 40 0
48 -19 7 -233 7 -251 -1z"/>
<path d="M3057 1583 c-13 -12 -7 -41 10 -47 9 -4 23 0 31 8 13 12 13 18 2 30
-13 17 -32 21 -43 9z"/>
<path d="M3602 2598 c3 -21 9 -23 64 -26 45 -2 64 1 73 12 22 26 2 36 -70 36
-67 0 -70 -1 -67 -22z"/>
<path d="M3514 1265 c-3 -8 -3 -19 1 -25 10 -16 861 -14 867 3 14 36 8 37
-433 37 -366 0 -430 -2 -435 -15z"/>
<path d="M3880 1141 c0 -10 7 -22 16 -25 28 -11 100 -6 119 7 32 24 8 37 -66
37 -61 0 -69 -2 -69 -19z"/>
</g>
</svg>
