<svg id="svg" version="1.1" viewBox="0 0 300 300" width="300" height="300" xmlns="http://www.w3.org/2000/svg"><svg xmlns="http://www.w3.org/2000/svg"><defs><clipPath id="clip-1"><rect x="0" y="0" transform="scale(0.15,0.15)" width="2000" height="2000" fill="none"/></clipPath></defs><g clip-path="url(#clip-1)" fill="none" fill-rule="nonzero" stroke="none" stroke-width="1" stroke-linecap="butt" stroke-linejoin="miter" stroke-miterlimit="10" stroke-dasharray="" stroke-dashoffset="0" font-family="none" font-weight="none" font-size="none" text-anchor="none" style="mix-blend-mode: normal"><path d="M236.6325,49.57125l0.2385,0.00975l0.192,0.2157c-0.1155,0.5511 -3.7875,3.9429 -4.473,4.6311l-17.0145,16.9869l-43.0305,43.04205c-3.171,3.183 -6.366,6.3414 -9.585,9.47505c-1.776,1.74495 -5.1765,4.8642 -6.4545,6.8367c2.424,-0.2118 5.607,-0.1122 8.067,-0.1305c4.986,-0.03705 9.987,0.0267 14.9745,-0.04245c9.6285,-0.12675 19.2585,-0.1647 28.887,-0.1137c5.145,-0.00045 10.7175,-0.2748 15.786,0.29925c13.344,1.6026 20.1975,18.06525 11.658,28.5264c-2.7015,3.309 -6.3555,6.645 -9.4365,9.6765l-14.4825,14.3895l-39.7485,39.5745l-19.3365,19.2225c-1.002,0.993 -7.8114,8.331 -8.68815,8.364c-4.48155,0.174 -9.4869,0.0825 -13.98825,0.072l-37.7568,0.0045l-10.7682,-0.0015c-2.6295,-0.0135 -6.3225,-0.1155 -8.87805,0.2235l-0.25575,0.036c0.5706,-0.753 0.93165,-1.275 1.6365,-1.908l73.1439,-73.6635c0.83835,-0.8595 6.0648,-5.754 6.1218,-6.3675c-0.9435,-0.147 -4.00575,-0.051 -5.1468,-0.0465l-10.80165,0.003l-40.55475,-0.012c-4.2702,0.0015 -8.56695,0.084 -12.8262,-0.0855c-9.05025,-0.36 -16.21665,-6.816 -17.1792,-15.879c-1.098,-10.33935 6.30195,-15.7383 12.8673,-22.2021l13.2177,-13.23915l32.29515,-32.81535c11.0964,-11.2377 22.362,-22.3692 33.36645,-33.69975c1.767,-1.81965 5.5815,-1.29375 8.025,-1.29915l10.9815,-0.00255l38.9145,-0.01455l12.171,0.06525c2.112,0.01215 5.6205,0.08415 7.65,-0.1101z" fill="#f07879"/></g></svg></svg>